<svg xmlns="http://www.w3.org/2000/svg" xmlns:xlink="http://www.w3.org/1999/xlink" viewBox="0 0 280 250" preserveAspectRatio="xMidYMid" style="display: block; shape-rendering: auto; background: rgb(253, 253, 253);" width="280" height="250"><style type="text/css">
  .ld-text text {
    text-anchor: middle;
    dominant-baseline: middle;
    font-size: 80px;
    opacity: 0;
    user-select: none;
    pointer-events: none;
  }
</style>
<g style="transform-origin:140px 125px;transform:scale(1)" class="ld-text">
<g transform="translate(140,125)">
  <g transform="scale(1.0000) translate(0,0)"><g class="path" style="opacity: 1; transform-origin: -102.04px 1.48px; transform: matrix3d(0.91, 0, 0, 0, 0, 0.91, 0, 0, 0, 0, 0.91, 0, 0, 0, 0, 1); animation: 1s linear -0.565714s infinite normal forwards running animate-39xphgv6hn9; transform-box: view-box;"><path d="M45.44 12.16Q43.76 10.48 43.76 8.08Q43.76 5.68 45.44 3.96Q47.12 2.24 49.24 2.24Q51.36 2.24 52.84 3.32Q54.32 4.40 54.96 6.08L54.96 6.08Q55.04 6.16 55.04 6.24L55.04 6.24L55.04 6.32Q56 8.40 56 12.04Q56 15.68 55.52 18.24Q55.04 20.80 53.76 23.68Q52.48 26.56 50.64 28.84Q48.80 31.12 45.72 32.60Q42.64 34.08 38.88 34.08L38.88 34.08Q32.48 34.08 29.28 29.44L29.28 29.44Q25.44 34.08 18.80 34.08L18.80 34.08Q13.68 34.08 10.44 30.88Q7.20 27.68 7.20 23.52Q7.20 19.36 8.68 13.24Q10.16 7.12 10.32 3.84L10.32 3.84Q9.04 3.92 7.84 4.76Q6.64 5.60 6.08 6.40L6.08 6.40L5.52 7.20L4.32 6.24Q4.56 5.76 5.04 5.12Q5.52 4.48 7.48 3.36Q9.44 2.24 12.40 2.24Q15.36 2.24 17.16 4.16Q18.96 6.08 18.96 9.04Q18.96 12 17.36 18.20Q15.76 24.40 15.76 26.92Q15.76 29.44 16.92 30.88Q18.08 32.32 20.24 32.32L20.24 32.32Q24.88 32.32 28.16 27.52L28.16 27.52Q27.28 25.28 27.28 22.32Q27.28 19.36 28.76 13.24Q30.24 7.12 30.40 3.84L30.40 3.84Q29.12 3.92 27.92 4.76Q26.72 5.60 26.16 6.40L26.16 6.40L25.60 7.20L24.40 6.24Q24.64 5.76 25.12 5.12Q25.60 4.48 27.56 3.36Q29.52 2.24 32.48 2.24Q35.44 2.24 37.24 4.16Q39.04 6.08 39.04 9.04Q39.04 12 37.44 18.20Q35.84 24.40 35.84 26.92Q35.84 29.44 37 30.88Q38.16 32.32 40.32 32.32L40.32 32.32Q45.68 32.32 49.92 26.52Q54.16 20.72 54.16 13.44L54.16 13.44Q54.16 12.88 54 11.76L54 11.76Q52.32 13.84 49.72 13.84Q47.12 13.84 45.44 12.16" style="fill: rgb(81, 202, 204);" transform="translate(-132.200,-16.680)"></path></g><g class="path" style="opacity: 1; transform-origin: -58.6px 1.48px; transform: matrix3d(0.91, 0, 0, 0, 0, 0.91, 0, 0, 0, 0, 0.91, 0, 0, 0, 0, 1); animation: 1s linear -0.471429s infinite normal forwards running animate-39xphgv6hn9; transform-box: view-box;"><path d="M77.12 2.24L77.12 2.24Q87.28 2.24 87.28 10.32L87.28 10.32Q87.28 15.36 82.52 17.96Q77.76 20.56 68.96 20.64L68.96 20.64Q68.80 23.52 68.80 25.20L68.80 25.20Q68.80 28.80 70.44 30.52Q72.08 32.24 74.56 32.24Q77.04 32.24 79.08 31.28Q81.12 30.32 82.32 29Q83.52 27.68 84.40 26.24L84.40 26.24Q86 23.60 86 22.88L86 22.88L87.44 23.52Q87.20 24.80 86 26.92Q84.80 29.04 83.36 30.40Q81.92 31.76 79.12 32.92Q76.32 34.08 72.88 34.08L72.88 34.08Q66.40 34.08 63.08 31Q59.76 27.92 59.76 22.56L59.76 22.56Q59.76 13.04 64.48 7.64Q69.20 2.24 77.12 2.24 zM85.28 10.32Q85.28 7.68 83.72 5.96Q82.16 4.24 79.08 4.24Q76 4.24 73.08 7.92Q70.16 11.60 69.20 18.80L69.20 18.80Q85.28 18.72 85.28 10.32L85.28 10.32" style="fill: rgb(157, 248, 113);" transform="translate(-132.200,-16.680)"></path></g><g class="path" style="opacity: 1; transform-origin: -29.04px -8.88px; transform: matrix3d(0.91, 0, 0, 0, 0, 0.91, 0, 0, 0, 0, 0.91, 0, 0, 0, 0, 1); animation: 1s linear -0.377143s infinite normal forwards running animate-39xphgv6hn9; transform-box: view-box;"><path d="M106.24 30.48Q105.20 31.84 103.40 32.96Q101.60 34.08 98.72 34.08Q95.84 34.08 93.84 32.24Q91.84 30.40 91.84 27.04L91.84 27.04Q91.84 26.40 92 24.96L92 24.96L97.20-3.84Q98.64-11.76 101.16-15.12Q103.68-18.48 107.84-18.48L107.84-18.48Q110.72-18.48 112.60-16.32Q114.48-14.16 114.48-9.76Q114.48-5.36 111.08 2.80Q107.68 10.96 107.68 14.72L107.68 14.72L106.24 14.72Q106.24 10.48 109.60 2.60Q112.96-5.28 112.96-10L112.96-10Q112.96-12.88 111.64-14.96Q110.32-17.04 108.40-17.04L108.40-17.04Q108.32-14.96 105.64 1.64Q102.96 18.24 100.32 32.48L100.32 32.48Q102.56 32.48 104.48 30.16Q106.40 27.84 107.20 25.52L107.20 25.52L108.08 23.12L109.52 23.76Q109.28 24.88 108.28 27Q107.28 29.12 106.24 30.48" style="fill: rgb(224, 255, 119);" transform="translate(-132.200,-16.680)"></path></g><g class="path" style="opacity: 1; transform-origin: -3.88px 1.48px; transform: matrix3d(0.91, 0, 0, 0, 0, 0.91, 0, 0, 0, 0, 0.91, 0, 0, 0, 0, 1); animation: 1s linear -0.282857s infinite normal forwards running animate-39xphgv6hn9; transform-box: view-box;"><path d="M133.12 16.64Q131.44 14.96 131.44 12.56Q131.44 10.16 133.12 8.44Q134.80 6.72 137.20 6.72L137.20 6.72Q137.92 6.72 139.04 7.04L139.04 7.04Q137.52 4.24 133.36 4.24Q129.20 4.24 126 9.52Q122.80 14.80 122.80 25.20L122.80 25.20Q122.80 28.80 124.44 30.52Q126.08 32.24 128.56 32.24Q131.04 32.24 133.08 31.28Q135.12 30.32 136.32 29Q137.52 27.68 138.40 26.24L138.40 26.24Q140 23.60 140 22.88L140 22.88L141.44 23.52Q141.20 24.80 140 26.92Q138.80 29.04 137.36 30.40Q135.92 31.76 133.12 32.92Q130.32 34.08 126.88 34.08L126.88 34.08Q120.40 34.08 117.08 31Q113.76 27.92 113.76 22.56L113.76 22.56Q113.76 13.04 118.52 7.64Q123.28 2.24 131.44 2.24L131.44 2.24Q136.96 2.24 139.92 5.04Q142.88 7.84 142.88 12.40L142.88 12.40Q142.88 15.28 141.16 16.80Q139.44 18.32 137.12 18.32Q134.80 18.32 133.12 16.64" style="fill: rgb(222, 157, 214);" transform="translate(-132.200,-16.680)"></path></g><g class="path" style="opacity: 1; transform-origin: 29.72px 1.48px; transform: matrix3d(0.91, 0, 0, 0, 0, 0.91, 0, 0, 0, 0, 0.91, 0, 0, 0, 0, 1); animation: 1s linear -0.188571s infinite normal forwards running animate-39xphgv6hn9; transform-box: view-box;"><path d="M158.80 34.08Q152.64 34.08 149.44 31Q146.24 27.92 146.24 23.24Q146.24 18.56 147.08 15.24Q147.92 11.92 149.84 8.84Q151.76 5.76 155.64 4Q159.52 2.24 165.32 2.24Q171.12 2.24 174.36 5.32Q177.60 8.40 177.60 13.76L177.60 13.76Q177.60 22.88 172.76 28.48Q167.92 34.08 158.80 34.08L158.80 34.08 zM155.28 25.84L155.28 25.84Q155.28 32.24 159 32.24Q162.72 32.24 165.64 25.80Q168.56 19.36 168.56 10.48L168.56 10.48Q168.56 3.76 164.92 3.76Q161.28 3.76 158.28 9.88Q155.28 16 155.28 25.84" style="fill: rgb(255, 112, 142);" transform="translate(-132.200,-16.680)"></path></g><g class="path" style="opacity: 1; transform-origin: 77.48px 1.48px; transform: matrix3d(0.91, 0, 0, 0, 0, 0.91, 0, 0, 0, 0, 0.91, 0, 0, 0, 0, 1); animation: 1s linear -0.0942857s infinite normal forwards running animate-39xphgv6hn9; transform-box: view-box;"><path d="M212 32.48L212 32.48Q213.92 32.48 216 30.24L216 30.24L217.20 31.20Q216.64 32.32 214.72 33.20Q212.80 34.08 210.48 34.08L210.48 34.08Q203.20 34.08 203.20 27.52L203.20 27.52Q203.20 24.72 204.64 17.52Q206.08 10.32 206.08 8.08L206.08 8.08Q206.08 4.64 202.80 4.64L202.80 4.64Q197.84 4.64 194.48 17.36L194.48 17.36L191.60 33.36L182 33.36L187.28 3.84Q184.88 4.08 183.28 6.08L183.28 6.08L182.08 5.12Q184.48 2.24 188.12 2.24Q191.76 2.24 193.76 4.08Q195.76 5.92 195.76 9.28L195.76 9.28L195.76 9.52Q198.88 2.24 205.20 2.24L205.20 2.24Q209.68 2.24 212.28 4.68Q214.88 7.12 215.12 11.52L215.12 11.52Q216.64 7.12 218.96 4.68Q221.28 2.24 225.68 2.24Q230.08 2.24 232.72 4.92Q235.36 7.60 235.36 12.32L235.36 12.32Q235.36 14.80 233.84 21.88Q232.32 28.96 232.16 32.48L232.16 32.48Q234.08 32.48 236.16 30.24L236.16 30.24L237.36 31.20Q236.80 32.32 234.88 33.20Q232.96 34.08 230.64 34.08L230.64 34.08Q223.36 34.08 223.36 27.52L223.36 27.52Q223.36 24.72 224.80 17.52Q226.24 10.32 226.24 8.08L226.24 8.08Q226.24 4.64 222.96 4.64L222.96 4.64Q217.20 4.64 213.68 21.76L213.68 21.76Q212.16 29.04 212 32.48" style="fill: rgb(81, 202, 204);" transform="translate(-132.200,-16.680)"></path></g><g class="path" style="opacity: 1; transform-origin: 122.68px 1.48px; transform: matrix3d(0.91, 0, 0, 0, 0, 0.91, 0, 0, 0, 0, 0.91, 0, 0, 0, 0, 1); animation: 1s linear 0s infinite normal forwards running animate-39xphgv6hn9; transform-box: view-box;"><path d="M258.40 2.24L258.40 2.24Q268.56 2.24 268.56 10.32L268.56 10.32Q268.56 15.36 263.80 17.96Q259.04 20.56 250.24 20.64L250.24 20.64Q250.08 23.52 250.08 25.20L250.08 25.20Q250.08 28.80 251.72 30.52Q253.36 32.24 255.84 32.24Q258.32 32.24 260.36 31.28Q262.40 30.32 263.60 29Q264.80 27.68 265.68 26.24L265.68 26.24Q267.28 23.60 267.28 22.88L267.28 22.88L268.72 23.52Q268.48 24.80 267.28 26.92Q266.08 29.04 264.64 30.40Q263.20 31.76 260.40 32.92Q257.60 34.08 254.16 34.08L254.16 34.08Q247.68 34.08 244.36 31Q241.04 27.92 241.04 22.56L241.04 22.56Q241.04 13.04 245.76 7.64Q250.48 2.24 258.40 2.24 zM266.56 10.32Q266.56 7.68 265 5.96Q263.44 4.24 260.36 4.24Q257.28 4.24 254.36 7.92Q251.44 11.60 250.48 18.80L250.48 18.80Q266.56 18.72 266.56 10.32L266.56 10.32" style="fill: rgb(157, 248, 113);" transform="translate(-132.200,-16.680)"></path></g></g><text dy="0.35em" fill="#51cacc" font-family="Sail" font-size="80">welcome</text>
</g>
</g><style type="text/css">@keyframes animate-39xphgv6hn9 { 0.00% {transform: translate(0.00px,0.00px) rotate(0.00deg) scale(0.91, 0.91) skew(0deg, 0.00deg) ;opacity: 1.00;}4.00% {transform: translate(0.00px,0.00px) rotate(0.00deg) scale(0.91, 0.91) ;}8.00% {animation-timing-function: cubic-bezier(0.69,0.60,0.35,0.27);transform: translate(0.00px,0.00px) rotate(0.00deg) scale(0.91, 0.91) ;}14.00% {transform: translate(0.00px,0.00px) rotate(0.00deg) scale(0.93, 0.93) ;}18.00% {transform: translate(0.00px,0.00px) rotate(0.00deg) scale(0.94, 0.94) ;}22.00% {animation-timing-function: cubic-bezier(0.67,0.66,0.34,0.33);transform: translate(0.00px,0.00px) rotate(0.00deg) scale(0.96, 0.96) ;}26.00% {transform: translate(0.00px,0.00px) rotate(0.00deg) scale(0.97, 0.97) ;}30.00% {transform: translate(0.00px,0.00px) rotate(0.00deg) scale(0.99, 0.99) ;}34.00% {animation-timing-function: cubic-bezier(0.65,0.71,0.32,0.38);transform: translate(0.00px,0.00px) rotate(0.00deg) scale(1.01, 1.01) ;}40.00% {animation-timing-function: cubic-bezier(0.64,0.74,0.31,0.41);transform: translate(0.00px,0.00px) rotate(0.00deg) scale(1.02, 1.02) ;}46.00% {animation-timing-function: cubic-bezier(0.60,0.91,0.23,0.63);transform: translate(0.00px,0.00px) rotate(0.00deg) scale(1.03, 1.03) ;}50.00% {transform: translate(0.00px,0.00px) rotate(0.00deg) scale(1.03, 1.03) ;}54.00% {transform: translate(0.00px,0.00px) rotate(0.00deg) scale(1.03, 1.03) ;}58.00% {animation-timing-function: cubic-bezier(0.69,0.60,0.35,0.27);transform: translate(0.00px,0.00px) rotate(0.00deg) scale(1.03, 1.03) ;}64.00% {transform: translate(0.00px,0.00px) rotate(0.00deg) scale(1.01, 1.01) ;}68.00% {transform: translate(0.00px,0.00px) rotate(0.00deg) scale(1.00, 1.00) ;}72.00% {animation-timing-function: cubic-bezier(0.67,0.66,0.34,0.33);transform: translate(0.00px,0.00px) rotate(0.00deg) scale(0.98, 0.98) ;}76.00% {animation-timing-function: cubic-bezier(0.66,0.68,0.33,0.35);transform: translate(0.00px,0.00px) rotate(0.00deg) scale(0.97, 0.97) ;}82.00% {animation-timing-function: cubic-bezier(0.65,0.71,0.32,0.38);transform: translate(0.00px,0.00px) rotate(0.00deg) scale(0.94, 0.94) ;}88.00% {animation-timing-function: cubic-bezier(0.65,0.73,0.31,0.40);transform: translate(0.00px,0.00px) rotate(0.00deg) scale(0.92, 0.92) ;}94.00% {animation-timing-function: cubic-bezier(0.63,0.80,0.28,0.48);transform: translate(0.00px,0.00px) rotate(0.00deg) scale(0.91, 0.91) ;}100.00% {animation-timing-function: cubic-bezier(0.63,0.80,0.28,0.48);transform: translate(0.00px,0.00px) rotate(0.00deg) scale(0.91, 0.91) ;} }</style><!-- [ldio] generated by https://loading.io --></svg>